<?xml version="1.0" encoding="utf-8"?>
<!-- Generator: Adobe Illustrator 16.0.0, SVG Export Plug-In . SVG Version: 6.00 Build 0)  -->
<!DOCTYPE svg PUBLIC "-//W3C//DTD SVG 1.1//EN" "http://www.w3.org/Graphics/SVG/1.1/DTD/svg11.dtd" [
	<!ENTITY ns_flows "http://ns.adobe.com/Flows/1.0/">
	<!ENTITY ns_extend "http://ns.adobe.com/Extensibility/1.0/">
	<!ENTITY ns_ai "http://ns.adobe.com/AdobeIllustrator/10.0/">
	<!ENTITY ns_graphs "http://ns.adobe.com/Graphs/1.0/">
]>
<svg version="1.1" id="Layer_1" xmlns:x="&ns_extend;" xmlns:i="&ns_ai;" xmlns:graph="&ns_graphs;"
	 xmlns="http://www.w3.org/2000/svg" xmlns:xlink="http://www.w3.org/1999/xlink" xmlns:a="http://ns.adobe.com/AdobeSVGViewerExtensions/3.0/"
	 x="0px" y="0px" width="84.058px" height="111.594px" viewBox="0 0 84.058 111.594" enable-background="new 0 0 84.058 111.594"
	 xml:space="preserve">
<g id="layer101">
	<path fill="#445B68" d="M48.282,106.641c-4.181-2.311-4.676-2.807-4.676-4.182c0-2.809,1.484-3.081,5.227-0.99l3.303,1.814v-4.402
		v-4.402l-6.164-0.164l-6.219-0.167v-1.923v-1.928l6.219-0.164l6.164-0.166v-4.293v-4.349l-6.713,2.149
		c-3.744,1.152-7.21,1.98-7.706,1.814c-1.101-0.33-1.706-1.871-1.211-3.137c0.441-1.21,16.842-6.659,18.712-6.22l1.319,0.33
		l-0.109,16.401l-0.165,16.345l-1.651,0.165C53.457,109.229,51.474,108.458,48.282,106.641z"/>
	<path fill="#445B68" d="M31.497,98.607C19.942,92.885,11.849,82.924,8.661,70.542c-1.543-6-1.543-15.576,0-21.575
		c5.006-19.594,22.066-32.69,42.482-32.69c3.578,0,4.845,0.607,4.845,2.201c-0.055,1.982-0.938,2.367-6.108,2.586
		c-8.477,0.275-15.246,2.588-22.288,7.596C13.94,38.456,8.328,57.72,14.546,73.511c2.753,6.881,9.412,15.411,14.363,18.272
		l1.651,0.99l-1.431-3.467c-1.871-4.566-2.31-13.265-0.936-18.546c2.698-10.346,11.117-18.931,21.299-21.573
		c3.025-0.771,4.457-0.055,4.181,2.255c-0.163,1.154-0.713,1.596-3.466,2.533c-5.172,1.816-7.759,3.355-10.896,6.603
		c-5.172,5.229-7.926,12.604-7.375,19.756c0.44,5.946,2.586,10.677,7.595,16.896c0.937,1.212,1.047,1.649,0.552,2.64
		C39.091,101.634,37.055,101.302,31.497,98.607z"/>
	<path fill="#445B68" d="M39.147,68.339c-0.165-0.441-0.219-1.377-0.11-2.09c0.166-1.211,0.331-1.268,6.386-1.432l6.162-0.166
		v-3.301c0-1.82,0.274-3.797,0.551-4.404c0.66-1.154,2.751-1.376,3.742-0.387c0.88,0.88,0.88,11.011,0,11.89
		C54.832,69.492,39.532,69.382,39.147,68.339z"/>
	<path fill="#445B68" d="M58.629,51.995c-1.817-0.991-0.938-4.348,1.157-4.348c0.438,0,2.805-0.99,5.226-2.146
		c4.569-2.255,8.638-5.07,11.279-8.208L70.5,34.709l4.374-3.459c-3.742-4.02-8.43-6.828-12.889-8.424
		c-3.468-1.266-4.294-2.422-3.247-4.402c0.88-1.596,3.081-1.209,8.255,1.375c5.339,2.697,9.729,6.262,13.194,10.441
		c1.685,2.047-4.573,4.115-4.531,4.156c0,0,6.606,2.233,5.062,4.156c-3.687,4.732-9.214,9.534-15.156,12.009
		C61.27,52.326,59.787,52.655,58.629,51.995z"/>
	<path fill="#445B68" d="M52.465,46.767c-0.717-0.715-0.881-2.533-0.881-11.282c0-6.164,0.222-10.898,0.551-11.557
		c0.716-1.322,3.577-1.432,4.072-0.164c0.165,0.492,0.329,5.666,0.329,11.5c0,8.969-0.164,10.788-0.88,11.502
		c-0.439,0.496-1.21,0.881-1.595,0.881C53.674,47.647,52.905,47.263,52.465,46.767z"/>
	<path fill="#445B68" d="M5.578,40.215c-1.212-3.08,2.364-15.076,6.438-21.682C16.583,11.104,24.233,3.62,27.316,3.62
		c1.265,0,1.87,0.662,4.402,4.898c3.355,5.725,3.521,7.375,0.77,7.65c-1.595,0.164-1.87-0.111-3.854-3.412l-2.146-3.578l-1.817,1.43
		c-2.971,2.367-8.088,9.191-10.51,14.09c-1.21,2.479-2.751,6.77-3.355,9.465c-0.662,2.754-1.377,5.34-1.598,5.779
		C8.661,41.153,5.96,41.318,5.578,40.215z"/>
	<path fill="#445B68" d="M61.049,33.78c-0.825-0.826-0.825-3.357,0-4.184c0.385-0.387,1.321-0.66,2.091-0.66
		c1.818,0,2.752,0.936,2.752,2.75c0,1.818-0.934,2.752-2.752,2.752C62.371,34.438,61.434,34.163,61.049,33.78z"/>
</g>
</svg>
