<?xml version="1.0" standalone="no"?>
<!DOCTYPE svg PUBLIC "-//W3C//DTD SVG 20010904//EN"
 "http://www.w3.org/TR/2001/REC-SVG-20010904/DTD/svg10.dtd">
<svg version="1.0" xmlns="http://www.w3.org/2000/svg"
 width="150.000000pt" height="150.000000pt" viewBox="0 0 150.000000 150.000000"
 preserveAspectRatio="xMidYMid meet">
<metadata>
Created by potrace 1.11, written by Peter Selinger 2001-2013
</metadata>
<g transform="translate(0.000000,150.000000) scale(0.100000,-0.100000)"
fill="#000000" stroke="none">
<path d="M458 1404 c-99 -83 -175 -198 -212 -323 -20 -69 -21 -110 -1 -117 24
-10 40 11 54 68 29 114 116 257 194 318 l26 20 31 -45 c48 -70 101 -56 65 17
-32 61 -65 98 -90 98 -13 0 -43 -16 -67 -36z"/>
<path d="M725 1265 c-322 -70 -513 -347 -455 -656 33 -173 181 -343 356 -408
92 -35 107 -12 44 71 -71 93 -90 203 -54 310 25 77 119 169 202 198 68 25 92
50 66 70 -32 27 -163 -32 -237 -107 -90 -90 -127 -203 -107 -329 6 -37 15 -75
20 -85 47 -86 -92 32 -161 139 -104 159 -102 352 7 517 88 134 239 216 424
231 85 7 112 22 90 49 -16 19 -110 19 -195 0z"/>
<path d="M964 1245 c-9 -22 2 -32 69 -64 34 -16 89 -54 121 -83 54 -49 58 -56
47 -76 -17 -32 -108 -97 -184 -132 -67 -30 -80 -47 -53 -69 32 -27 197 59 270
139 47 52 54 81 27 119 -77 107 -277 220 -297 166z"/>
<path d="M886 1187 c-14 -10 -16 -33 -14 -157 l3 -145 25 0 25 0 3 151 c2 124
0 153 -12 157 -8 3 -21 0 -30 -6z"/>
<path d="M1003 1113 c-7 -2 -13 -18 -13 -34 0 -26 3 -29 35 -29 32 0 35 3 35
29 0 34 -23 48 -57 34z"/>
<path d="M883 762 c-6 -4 -13 -30 -15 -57 l-3 -50 -85 -5 c-77 -5 -85 -7 -85
-25 0 -19 8 -20 118 -23 l118 -3 -3 83 c-3 84 -13 101 -45 80z"/>
<path d="M812 484 c-124 -36 -152 -50 -152 -73 0 -28 34 -27 133 3 l77 24 0
-53 c0 -51 -1 -53 -31 -59 -17 -3 -56 -6 -85 -6 -51 0 -54 -1 -54 -25 0 -25 1
-25 85 -25 l85 0 0 -55 c0 -30 -2 -55 -5 -55 -3 0 -24 9 -46 20 -44 23 -59 20
-59 -14 0 -18 13 -30 59 -55 32 -17 71 -31 85 -31 l26 0 0 215 c0 248 13 228
-118 189z"/>
</g>
</svg>
