<?xml version="1.0" encoding="utf-8"?>
<!-- Generator: Adobe Illustrator 24.0.3, SVG Export Plug-In . SVG Version: 6.00 Build 0)  -->
<svg version="1.1" xmlns="http://www.w3.org/2000/svg" xmlns:xlink="http://www.w3.org/1999/xlink" x="0px" y="0px"
	 viewBox="0 0 500 500" style="enable-background:new 0 0 500 500;" xml:space="preserve">
<style type="text/css">
	.st0{clip-path:url(#Rectangle_1_);fill:url(#SVGID_1_);}
	.st1{clip-path:url(#Rectangle_1_);fill:#B79365;}
	.st2{opacity:0.8;clip-path:url(#Rectangle_1_);fill:#1693A8;}
	.st3{opacity:0.9;clip-path:url(#Rectangle_1_);fill:#147281;}
	.st4{clip-path:url(#Rectangle_1_);fill:#053A52;}
	.st5{clip-path:url(#Rectangle_1_);}
	.st6{fill:#FBEC63;}
	.st7{fill:#F0DD51;}
	.st8{fill:#B2D5C9;}
	.st9{fill:#DAE2CB;}
	.st10{display:none;clip-path:url(#Rectangle_1_);}
	
		.st11{display:inline;fill:#F15A29;stroke:#F7941D;stroke-width:1.7468;stroke-linecap:round;stroke-linejoin:round;stroke-miterlimit:10;}
	.st12{display:inline;}
	.st13{fill:#FFF200;}
	.st14{display:inline;fill:#F15A29;stroke:#F7941D;stroke-width:1.7468;stroke-miterlimit:10;}
	.st15{fill:#6D6E71;}
	.st16{fill:#808285;}
	.st17{fill:#ED1C24;}
	.st18{fill:#F7941D;}
	
		.st19{display:inline;fill:none;stroke:#030303;stroke-width:1.35;stroke-linecap:round;stroke-linejoin:round;stroke-miterlimit:10;}
	.st20{display:inline;fill:#030303;stroke:#ED1C24;stroke-miterlimit:10;}
	.st21{fill:#030303;}
	.st22{fill:#FFFFFF;}
	.st23{fill:#73ADDE;}
	.st24{fill:#5289C7;}
	.st25{fill:#276487;}
	.st26{fill:#201B19;}
	.st27{fill:#423833;}
	.st28{fill:#372F2A;}
	.st29{fill:#C0733D;}
	.st30{fill:#E9A777;}
	.st31{fill:#EFBA95;}
	.st32{fill:#25201D;}
	.st33{fill:#68150D;}
	.st34{fill:#617070;}
	.st35{fill:#455A5A;}
	.st36{fill:#318AA1;}
	.st37{fill:#E44525;}
	.st38{fill:#C8E2F6;}
	.st39{fill:#6AB6E5;}
	.st40{fill:#06A14B;}
	.st41{fill:#AF1F24;}
	.st42{fill:#6DC8F1;}
	.st43{fill:#EF4823;}
	.st44{fill:#C62127;}
	.st45{fill:#584E48;}
	.st46{fill:#9A1C1F;}
	.st47{fill:#F4D2B8;}
	.st48{fill:#726761;}
	.st49{fill:#ABD8F4;}
	.st50{fill:#F6916A;}
	.st51{fill:#F05228;}
	.st52{fill:#838C8B;}
	.st53{fill:#E35134;}
	.st54{fill:#7D1325;}
	.st55{fill:none;stroke:#7D1325;stroke-width:1.4084;stroke-linecap:round;stroke-linejoin:round;stroke-miterlimit:10;}
	.st56{fill:#C7BFB9;}
	.st57{clip-path:url(#SVGID_3_);fill:url(#SVGID_4_);}
	.st58{clip-path:url(#SVGID_3_);fill:#B79365;}
	.st59{clip-path:url(#SVGID_3_);fill:#1693A8;}
	.st60{clip-path:url(#SVGID_3_);fill:#147281;}
	.st61{clip-path:url(#SVGID_3_);fill:#053A52;}
	.st62{clip-path:url(#SVGID_3_);}
	.st63{display:none;}
	.st64{display:inline;fill:#1C8298;}
	.st65{fill:#1C8298;}
	.st66{fill:#E51E26;}
	.st67{fill:#167187;}
	.st68{fill:#0D1F2E;}
	.st69{font-family:'ImprintMT-Shadow';}
	.st70{font-size:82.0917px;}
	.st71{font-family:'CallingHeart';}
	.st72{font-size:50.1512px;}
</style>
<g id="Logo_Square">
</g>
<g id="Logo_Round">
</g>
<g id="Logo_Rectangle">
	<g>
		<g id="layer101_3_" class="st63">
			<path class="st64" d="M90.46,284.88c-5.7-2.97-6.38-3.6-6.38-5.37c0-3.61,2.02-3.96,7.13-1.27l4.51,2.33v-5.65v-5.65l-8.41-0.21
				l-8.48-0.21v-2.47v-2.47l8.48-0.21l8.41-0.21v-5.51v-5.58l-9.16,2.76c-5.11,1.48-9.83,2.54-10.51,2.33
				c-1.5-0.42-2.33-2.4-1.65-4.03c0.6-1.55,22.97-8.55,25.52-7.98l1.8,0.42l-0.15,21.05l-0.22,20.98l-2.25,0.21
				C97.51,288.2,94.81,287.21,90.46,284.88z"/>
			<path class="st64" d="M67.56,274.57c-15.76-7.34-26.8-20.13-31.15-36.02c-2.1-7.7-2.1-19.99,0-27.69
				c6.83-25.15,30.1-41.96,57.94-41.96c4.88,0,6.61,0.78,6.61,2.83c-0.07,2.54-1.28,3.04-8.33,3.32
				c-11.56,0.35-20.79,3.32-30.4,9.75c-18.62,12.57-26.28,37.3-17.79,57.57c3.75,8.83,12.84,19.78,19.59,23.45l2.25,1.27l-1.95-4.45
				c-2.55-5.86-3.15-17.02-1.28-23.8c3.68-13.28,15.16-24.3,29.05-27.69c4.13-0.99,6.08-0.07,5.7,2.89
				c-0.22,1.48-0.97,2.05-4.73,3.25c-7.06,2.33-10.58,4.31-14.86,8.47c-7.05,6.71-10.81,16.18-10.06,25.36
				c0.6,7.63,3.53,13.7,10.36,21.69c1.28,1.56,1.43,2.12,0.75,3.39C77.92,278.45,75.14,278.03,67.56,274.57z"/>
			<path class="st64" d="M78,235.72c-0.22-0.57-0.3-1.77-0.15-2.68c0.23-1.55,0.45-1.63,8.71-1.84l8.4-0.21v-4.24
				c0-2.34,0.38-4.87,0.75-5.65c0.9-1.48,3.75-1.77,5.1-0.5c1.2,1.13,1.2,14.13,0,15.26C99.39,237.2,78.52,237.06,78,235.72z"/>
			<path class="st64" d="M104.57,214.74c-2.48-1.27-1.28-5.58,1.58-5.58c0.6,0,3.83-1.27,7.13-2.76
				c6.23-2.89,11.78-6.51,15.38-10.54l-7.9-3.32l5.96-4.44c-5.1-5.16-11.5-8.76-17.58-10.81c-4.73-1.62-5.86-3.11-4.43-5.65
				c1.2-2.05,4.2-1.55,11.26,1.77c7.28,3.46,13.27,8.04,18,13.4c2.3,2.63-6.24,5.28-6.18,5.33c0,0,9.01,2.87,6.91,5.33
				c-5.03,6.07-12.57,12.24-20.67,15.41C108.17,215.16,106.15,215.59,104.57,214.74z"/>
			<path class="st64" d="M96.16,208.03c-0.98-0.92-1.2-3.25-1.2-14.48c0-7.91,0.3-13.99,0.75-14.83c0.98-1.7,4.88-1.84,5.55-0.21
				c0.23,0.63,0.45,7.27,0.45,14.76c0,11.51-0.22,13.85-1.2,14.76c-0.6,0.64-1.65,1.13-2.17,1.13
				C97.81,209.16,96.76,208.67,96.16,208.03z"/>
			<path class="st64" d="M32.21,199.62c-1.65-3.95,3.23-19.35,8.78-27.83c6.23-9.54,16.67-19.14,20.87-19.14
				c1.73,0,2.55,0.85,6,6.29c4.58,7.35,4.8,9.47,1.05,9.82c-2.18,0.21-2.55-0.14-5.25-4.38l-2.93-4.59l-2.48,1.83
				c-4.05,3.04-11.03,11.8-14.33,18.08c-1.65,3.18-3.75,8.69-4.58,12.15c-0.9,3.54-1.88,6.85-2.18,7.42
				C36.42,200.82,32.73,201.04,32.21,199.62z"/>
			<path class="st64" d="M107.87,191.36c-1.13-1.06-1.13-4.31,0-5.37c0.53-0.5,1.8-0.85,2.85-0.85c2.48,0,3.75,1.2,3.75,3.53
				c0,2.33-1.27,3.53-3.75,3.53C109.67,192.2,108.4,191.85,107.87,191.36z"/>
		</g>
		<g id="Zaynab_Fish_Farm_1_">
			<text transform="matrix(1 0 0 1 109.5947 286.981)" class="st68 st69 st70">ZAYNAB</text>
			<text transform="matrix(1 0 0 1 287.563 337.124)" class="st17 st71 st72">Fish Farm</text>
		</g>
		<g id="layer101_1_">
			<path class="st65" d="M90.41,285.74c-5.75-2.99-6.43-3.63-6.43-5.41c0-3.63,2.04-3.99,7.19-1.28l4.54,2.35v-5.7V270l-8.48-0.21
				l-8.55-0.22v-2.49v-2.5l8.55-0.21l8.48-0.21v-5.56v-5.63l-9.23,2.78c-5.15,1.49-9.91,2.56-10.6,2.35
				c-1.51-0.43-2.34-2.42-1.66-4.06c0.6-1.56,23.16-8.62,25.73-8.05l1.81,0.43l-0.15,21.22l-0.23,21.15l-2.27,0.21
				C97.52,289.09,94.79,288.09,90.41,285.74z"/>
			<path class="st65" d="M67.32,275.35c-15.89-7.4-27.01-20.29-31.4-36.32c-2.12-7.77-2.12-20.16,0-27.92
				c6.88-25.36,30.34-42.3,58.42-42.3c4.92,0,6.66,0.79,6.66,2.85c-0.08,2.56-1.29,3.06-8.4,3.35c-11.66,0.36-20.97,3.35-30.65,9.83
				c-18.77,12.68-26.49,37.6-17.94,58.04c3.79,8.9,12.95,19.94,19.75,23.64l2.27,1.28l-1.97-4.49c-2.57-5.91-3.17-17.16-1.29-24
				c3.71-13.39,15.29-24.5,29.29-27.92c4.16-1,6.13-0.07,5.75,2.92c-0.22,1.49-0.98,2.06-4.77,3.28
				c-7.11,2.35-10.67,4.34-14.98,8.54c-7.11,6.77-10.9,16.31-10.14,25.57c0.61,7.69,3.56,13.81,10.44,21.86
				c1.29,1.57,1.44,2.13,0.76,3.42C77.77,279.26,74.97,278.83,67.32,275.35z"/>
			<path class="st65" d="M77.84,236.18c-0.23-0.57-0.3-1.78-0.15-2.71c0.23-1.57,0.45-1.64,8.78-1.85l8.48-0.22v-4.27
				c0-2.36,0.38-4.92,0.76-5.7c0.91-1.49,3.78-1.78,5.15-0.5c1.21,1.14,1.21,14.25,0,15.39C99.41,237.67,78.37,237.53,77.84,236.18z
				"/>
			<path class="st65" d="M96.16,208.26c-0.99-0.93-1.21-3.28-1.21-14.6c0-7.98,0.3-14.1,0.76-14.96c0.98-1.71,4.92-1.85,5.6-0.21
				c0.23,0.64,0.45,7.33,0.45,14.88c0,11.61-0.22,13.96-1.21,14.89c-0.6,0.64-1.66,1.14-2.19,1.14
				C97.82,209.4,96.76,208.9,96.16,208.26z"/>
			<path class="st65" d="M31.68,199.78c-1.66-3.99,3.25-19.51,8.85-28.06c6.28-9.61,16.8-19.3,21.04-19.3
				c1.74,0,2.57,0.86,6.05,6.34c4.62,7.41,4.84,9.54,1.06,9.9c-2.19,0.21-2.57-0.15-5.3-4.42l-2.95-4.63l-2.5,1.85
				c-4.08,3.06-11.12,11.89-14.45,18.23c-1.67,3.21-3.78,8.76-4.61,12.25c-0.91,3.56-1.9,6.91-2.2,7.48
				C35.92,201,32.21,201.21,31.68,199.78z"/>
			<path class="st66" d="M107.96,191.45c-1.13-1.07-1.13-4.34,0-5.41c0.53-0.5,1.82-0.85,2.88-0.85c2.5,0,3.78,1.21,3.78,3.56
				c0,2.35-1.29,3.56-3.78,3.56C109.78,192.31,108.49,191.95,107.96,191.45z"/>
			<path class="st67" d="M104.79,215.03c-2.34-1.28-1.21-5.62,1.5-5.62c0.57,0,3.62-1.28,6.75-2.77c5.9-2.91,11.58-7.18,15-11.23
				l1.92-2.34l-4.2-4.34c-4.83-5.19-10.88-9.31-16.63-11.37c-4.48-1.64-5.54-3.13-4.19-5.69c1.13-2.06,3.98-1.56,10.66,1.78
				c6.9,3.48,12.37,7.75,16.85,13.15c4.62,5.62,4.76,7.25,0.99,11.94c-4.76,6.11-12.01,11.44-19.69,14.64
				C108.2,215.45,106.28,215.88,104.79,215.03z"/>
		</g>
	</g>
</g>
</svg>
