<?xml version="1.0" encoding="utf-8"?>
<!-- Generator: Adobe Illustrator 24.2.1, SVG Export Plug-In . SVG Version: 6.00 Build 0)  -->
<svg version="1.1" id="Layer_1" xmlns="http://www.w3.org/2000/svg" xmlns:xlink="http://www.w3.org/1999/xlink" x="0px" y="0px"
	 viewBox="0 0 449 199" style="enable-background:new 0 0 449 199;" xml:space="preserve">
<style type="text/css">
	.st0{display:none;}
	.st1{display:inline;fill:#1C8298;}
	.st2{fill:#0D1F2E;}
	.st3{font-family:'ImprintMT-Shadow';}
	.st4{font-size:82.0917px;}
	.st5{fill:#ED1C24;}
	.st6{font-family:'CallingHeart';}
	.st7{font-size:50.1512px;}
	.st8{fill:#1C8298;}
	.st9{fill:#E51E26;}
	.st10{fill:#167187;}
</style>
<g id="Logo_Square">
</g>
<g id="Logo_Round">
</g>
<g id="Logo_Rectangle">
	<g>
		<g id="layer101_3_" class="st0">
			<path class="st1" d="M66.1,138.1c-5.7-3-6.4-3.6-6.4-5.4c0-3.6,2-4,7.1-1.3l4.5,2.3v-5.6v-5.6l-8.4-0.2l-8.5-0.2v-2.5v-2.5
				l8.5-0.2l8.4-0.2v-5.5v-5.6l-9.2,2.8c-5.1,1.5-9.8,2.5-10.5,2.3c-1.5-0.4-2.3-2.4-1.7-4c0.6-1.6,23-8.6,25.5-8l1.8,0.4l-0.2,21
				l-0.2,21l-2.2,0.2C73.2,141.4,70.5,140.4,66.1,138.1z"/>
			<path class="st1" d="M43.2,127.8c-15.8-7.3-26.8-20.1-31.2-36C10,84,10,71.7,12.1,64c6.8-25.1,30.1-42,57.9-42
				c4.9,0,6.6,0.8,6.6,2.8c-0.1,2.5-1.3,3-8.3,3.3c-11.6,0.4-20.8,3.3-30.4,9.8C19.3,50.6,11.6,75.3,20.1,95.6
				c3.8,8.8,12.8,19.8,19.6,23.5l2.2,1.3l-1.9-4.5c-2.5-5.9-3.2-17-1.3-23.8c3.7-13.3,15.2-24.3,29.1-27.7c4.1-1,6.1-0.1,5.7,2.9
				c-0.2,1.5-1,2.1-4.7,3.2c-7.1,2.3-10.6,4.3-14.9,8.5c-7.1,6.7-10.8,16.2-10.1,25.4c0.6,7.6,3.5,13.7,10.4,21.7
				c1.3,1.6,1.4,2.1,0.8,3.4C53.6,131.6,50.8,131.2,43.2,127.8z"/>
			<path class="st1" d="M53.6,88.9c-0.2-0.6-0.3-1.8-0.2-2.7c0.2-1.6,0.4-1.6,8.7-1.8l8.4-0.2v-4.2c0-2.3,0.4-4.9,0.8-5.6
				c0.9-1.5,3.8-1.8,5.1-0.5c1.2,1.1,1.2,14.1,0,15.3C75,90.4,54.2,90.2,53.6,88.9z"/>
			<path class="st1" d="M80.2,67.9c-2.5-1.3-1.3-5.6,1.6-5.6c0.6,0,3.8-1.3,7.1-2.8c6.2-2.9,11.8-6.5,15.4-10.5l-7.9-3.3l6-4.4
				c-5.1-5.2-11.5-8.8-17.6-10.8c-4.7-1.6-5.9-3.1-4.4-5.6c1.2-2.1,4.2-1.6,11.3,1.8c7.3,3.5,13.3,8,18,13.4
				c2.3,2.6-6.2,5.3-6.2,5.3c0,0,9,2.9,6.9,5.3c-5,6.1-12.6,12.2-20.7,15.4C83.8,68.3,81.8,68.8,80.2,67.9z"/>
			<path class="st1" d="M71.8,61.2c-1-0.9-1.2-3.2-1.2-14.5c0-7.9,0.3-14,0.8-14.8c1-1.7,4.9-1.8,5.6-0.2c0.2,0.6,0.4,7.3,0.4,14.8
				c0,11.5-0.2,13.9-1.2,14.8c-0.6,0.6-1.7,1.1-2.2,1.1C73.5,62.3,72.4,61.9,71.8,61.2z"/>
			<path class="st1" d="M7.9,52.8c-1.6-3.9,3.2-19.4,8.8-27.8c6.2-9.5,16.7-19.1,20.9-19.1c1.7,0,2.6,0.9,6,6.3
				c4.6,7.4,4.8,9.5,1.1,9.8c-2.2,0.2-2.6-0.1-5.2-4.4L36.4,13l-2.5,1.8c-4,3-11,11.8-14.3,18.1c-1.7,3.2-3.8,8.7-4.6,12.1
				c-0.9,3.5-1.9,6.9-2.2,7.4C12.1,54,8.4,54.2,7.9,52.8z"/>
			<path class="st1" d="M83.5,44.5c-1.1-1.1-1.1-4.3,0-5.4c0.5-0.5,1.8-0.9,2.8-0.9c2.5,0,3.8,1.2,3.8,3.5s-1.3,3.5-3.8,3.5
				C85.3,45.4,84,45,83.5,44.5z"/>
		</g>
		<g id="Zaynab_Fish_Farm_1_">
			<text transform="matrix(1 0 0 1 85.2428 140.1669)" class="st2 st3 st4">ZAYNAB</text>
			<text transform="matrix(1 0 0 1 263.2111 190.31)" class="st5 st6 st7">Fish Farm</text>
		</g>
		<g id="layer101_1_">
			<path class="st8" d="M66.1,138.9c-5.8-3-6.4-3.6-6.4-5.4c0-3.6,2-4,7.2-1.3l4.5,2.4v-5.7v-5.7l-8.5-0.2l-8.6-0.2v-2.5v-2.5
				l8.6-0.2l8.5-0.2v-5.6v-5.6l-9.2,2.8c-5.2,1.5-9.9,2.6-10.6,2.4c-1.5-0.4-2.3-2.4-1.7-4.1c0.6-1.6,23.2-8.6,25.7-8.1l1.8,0.4
				l-0.2,21.2L77,142l-2.3,0.2C73.2,142.3,70.4,141.3,66.1,138.9z"/>
			<path class="st8" d="M43,128.5c-15.9-7.4-27-20.3-31.4-36.3c-2.1-7.8-2.1-20.2,0-27.9C18.4,38.9,41.9,22,70,22
				c4.9,0,6.7,0.8,6.7,2.9c-0.1,2.6-1.3,3.1-8.4,3.4c-11.7,0.4-21,3.4-30.7,9.8c-18.8,12.7-26.5,37.6-17.9,58
				c3.8,8.9,13,19.9,19.8,23.6l2.3,1.3l-2-4.5c-2.6-5.9-3.2-17.2-1.3-24C42.1,79.1,53.7,68,67.7,64.6c4.2-1,6.1-0.1,5.8,2.9
				c-0.2,1.5-1,2.1-4.8,3.3c-7.1,2.4-10.7,4.3-15,8.5c-7.1,6.8-10.9,16.3-10.1,25.6c0.6,7.7,3.6,13.8,10.4,21.9
				c1.3,1.6,1.4,2.1,0.8,3.4C53.4,132.4,50.6,132,43,128.5z"/>
			<path class="st8" d="M53.5,89.4c-0.2-0.6-0.3-1.8-0.2-2.7c0.2-1.6,0.4-1.6,8.8-1.9l8.5-0.2v-4.3c0-2.4,0.4-4.9,0.8-5.7
				c0.9-1.5,3.8-1.8,5.2-0.5c1.2,1.1,1.2,14.2,0,15.4C75.1,90.9,54,90.7,53.5,89.4z"/>
			<path class="st8" d="M71.8,61.4c-1-0.9-1.2-3.3-1.2-14.6c0-8,0.3-14.1,0.8-15c1-1.7,4.9-1.9,5.6-0.2c0.2,0.6,0.4,7.3,0.4,14.9
				c0,11.6-0.2,14-1.2,14.9c-0.6,0.6-1.7,1.1-2.2,1.1C73.5,62.6,72.4,62.1,71.8,61.4z"/>
			<path class="st8" d="M7.3,53c-1.7-4,3.2-19.5,8.8-28.1c6.3-9.6,16.8-19.3,21-19.3c1.7,0,2.6,0.9,6.1,6.3c4.6,7.4,4.8,9.5,1.1,9.9
				c-2.2,0.2-2.6-0.1-5.3-4.4l-3-4.6l-2.5,1.9c-4.1,3.1-11.1,11.9-14.5,18.2c-1.7,3.2-3.8,8.8-4.6,12.2c-0.9,3.6-1.9,6.9-2.2,7.5
				C11.6,54.2,7.9,54.4,7.3,53z"/>
			<path class="st9" d="M83.6,44.6c-1.1-1.1-1.1-4.3,0-5.4c0.5-0.5,1.8-0.9,2.9-0.9c2.5,0,3.8,1.2,3.8,3.6c0,2.4-1.3,3.6-3.8,3.6
				C85.4,45.5,84.1,45.1,83.6,44.6z"/>
			<path class="st10" d="M80.4,68.2c-2.3-1.3-1.2-5.6,1.5-5.6c0.6,0,3.6-1.3,6.8-2.8c5.9-2.9,11.6-7.2,15-11.2l1.9-2.3l-4.2-4.3
				c-4.8-5.2-10.9-9.3-16.6-11.4c-4.5-1.6-5.5-3.1-4.2-5.7c1.1-2.1,4-1.6,10.7,1.8c6.9,3.5,12.4,7.8,16.9,13.1
				c4.6,5.6,4.8,7.2,1,11.9c-4.8,6.1-12,11.4-19.7,14.6C83.8,68.6,81.9,69.1,80.4,68.2z"/>
		</g>
	</g>
</g>
</svg>
