<svg id="Icons" enable-background="new 0 0 512 512" height="512" viewBox="0 0 512 512" width="512" xmlns="http://www.w3.org/2000/svg"><g><g><circle cx="256" cy="256" fill="#f7c845" r="256"/><path d="m47.14 404.06c46.39 65.32 122.65 107.94 208.86 107.94s162.47-42.62 208.86-107.94z" fill="#fbdb58"/></g><g><g><g><path d="m197.21 324.64v12.65c0 5.91-4.79 10.71-10.7 10.71h-169.47c-1.24-3.2-2.41-6.44-3.52-9.7-1.53-4.49-2.93-9.05-4.21-13.65v-.01z" fill="#c2aacf"/><path d="m197.21 324.64v2.93c0 5.91-4.79 10.73-10.7 10.73h-172.99c-1.53-4.49-2.93-9.05-4.21-13.65v-.01z" fill="#decee5"/></g><path d="m197.21 159.01v165.64h-187.9c-6.07-21.85-9.31-44.87-9.31-68.65 0-39.33 8.87-76.59 24.73-109.88h159.58c7.13 0 12.9 5.77 12.9 12.89z" fill="#dd5e26"/><path d="m123.17 166.45c0 2.3-.94 4.39-2.45 5.91-1.51 1.51-3.61 2.44-5.92 2.44h-101.64c1.89-5.67 3.97-11.24 6.25-16.72h95.39c4.62 0 8.37 3.74 8.37 8.37z" fill="#ea792e"/><path d="m168.058 174.806h-26.051c-4.619 0-8.364-3.745-8.364-8.364 0-4.619 3.745-8.364 8.364-8.364h26.051c4.619 0 8.364 3.745 8.364 8.364 0 4.62-3.745 8.364-8.364 8.364z" fill="#ea792e"/><g><g fill="#fff"><path d="m59.371 223.025c.615.634.923 1.476.923 2.525v32.153c0 1.014-.29 1.811-.869 2.39-1.998 1.884-5.536.63-5.323-2.39v-22.377l-9.233 17.489c-.798 1.413-1.628 2.316-3.205 2.336-1.598-.027-2.412-.858-3.205-2.336 0 0-9.288-17.217-9.288-17.217v22.105c.199 2.924-3.385 4.322-5.323 2.39-.543-.579-.815-1.376-.815-2.39v-32.153c-.146-3.948 5.07-4.787 6.626-1.14 0 0 12.058 22.974 12.058 22.974l12.003-22.974c1.119-2.515 3.907-3.06 5.651-1.385z"/><path d="m75.963 258.736c-11.447-6.373-11.532-28.129-.027-34.489 5.249-3.181 14.178-3.193 19.417 0 6.023 3.55 8.505 10.018 8.5 17.217.013 7.196-2.538 13.73-8.554 17.272-5.237 3.197-14.117 3.178-19.336 0zm17.924-6.844c1.973-2.425 2.96-5.901 2.96-10.428.027-7.953-3.237-13.932-11.188-14.013-8.002.076-11.264 6.027-11.243 14.013 0 4.527.986 8.003 2.96 10.428 3.58 4.841 12.916 4.872 16.511 0z"/><path d="m140.677 222.02c2.247-.068 4.389 2.169 3.204 4.4 0 0-15.045 32.371-15.045 32.371-1.3 2.87-5.978 2.875-7.278 0 0 0-14.99-32.37-14.99-32.37-.217-.507-.326-.941-.326-1.304-.001-3.268 5.308-4.319 6.572-1.249 0 0 12.492 27.754 12.492 27.754l12.492-27.754c.58-1.232 1.54-1.848 2.879-1.848z"/><path d="m149.611 259.768c-.597-.579-.896-1.393-.896-2.444v-31.665c0-1.05.299-1.864.896-2.444.597-.579 1.421-.869 2.471-.869h19.607c1.05 0 1.865.236 2.444.706 1.184.866 1.135 3.235 0 4.101-.579.489-1.394.733-2.444.733h-16.131v10.537h15.045c1.917 0 3.311.807 3.313 2.77-.008 1.917-1.428 2.72-3.313 2.716h-15.045v11.188h16.131c1.05 0 1.865.244 2.444.733 1.135.866 1.184 3.236 0 4.101-.579.471-1.394.706-2.444.706h-19.607c-1.05 0-1.873-.289-2.471-.869z"/></g></g></g><g><circle cx="93.674" cy="366.68" fill="#334353" r="52.253"/><path d="m145.931 366.67c0 26.339-19.493 48.114-44.818 51.719-25.353-3.578-44.846-25.353-44.846-51.719 0-26.338 19.493-48.113 44.846-51.719 25.324 3.605 44.818 25.408 44.818 51.719z" fill="#3e4e60"/><circle cx="93.674" cy="366.68" fill="#decee5" r="29.493"/><circle cx="93.674" cy="366.68" fill="#c2aacf" r="12.728"/><g fill="#334353"><circle cx="93.674" cy="366.68" r="4.441"/><circle cx="72.338" cy="366.68" r="4.441"/><circle cx="93.674" cy="345.569" r="4.441"/><circle cx="93.674" cy="387.79" r="4.441"/><circle cx="115.01" cy="366.68" r="4.441"/></g></g><g><path d="m191.17 347.201 156.546 41.941c6.23 1.668 12.635-2.027 14.303-8.256.142-.534.242-1.076.308-1.61.701-5.688-2.869-11.159-8.565-12.685l-156.546-41.949-2.81 10.483z" fill="#c2aacf"/><g fill="#decee5"><path d="m197.216 324.642c-1.552 5.79 1.883 11.742 7.673 13.294l153.01 41.031c1.493.4 2.986.492 4.428.309.701-5.688-2.869-11.159-8.565-12.685z"/><path d="m329.884 384.366-15.565-4.171v26.698c0 4.298 3.484 7.782 7.783 7.782 4.298 0 7.783-3.484 7.783-7.782v-22.527z"/></g></g></g><g><g><path d="m304.283 169.243-15.019 56.053 98.569 26.411 15.019-56.053c.754-2.813.903-5.648.521-8.36.001-.004.001-.004.001-.004-1.132-8.142-7.003-15.216-15.446-17.479l-57.799-15.487c-8.443-2.262-17.065.929-22.116 7.414 0 0 0 0-.001.004-1.687 2.158-2.975 4.688-3.729 7.501z" fill="#be1913"/><path d="m308.013 161.738s0 0-.001.004c1.132 8.142 7.003 15.216 15.446 17.479l57.799 15.487c8.443 2.262 17.065-.929 22.116-7.414.001-.004.001-.004.001-.004-1.132-8.142-7.003-15.216-15.446-17.479l-57.799-15.487c-8.444-2.262-17.065.929-22.116 7.414z" fill="#dd1608"/><path d="m288.71 225.965h102.046v16.233h-102.046z" fill="#aa1813" transform="matrix(-.966 -.259 .259 -.966 607.304 548.117)"/><g fill="#ea4744"><path d="m350.754 164.694 37.539 10.059c1.741.466 2.774 2.256 2.307 3.997-.466 1.741-2.256 2.774-3.997 2.307l-37.539-10.059c-1.741-.466-2.774-2.256-2.307-3.997.467-1.741 2.256-2.774 3.997-2.307z"/><path d="m327.343 158.421 10.873 2.913c1.741.466 2.774 2.256 2.307 3.997-.466 1.741-2.256 2.774-3.997 2.307l-10.873-2.913c-1.741-.466-2.774-2.256-2.307-3.997.467-1.74 2.256-2.774 3.997-2.307z"/></g></g><path d="m286.892 269.342h82.577v15.7h-82.577z" fill="#dd1608" transform="matrix(-.966 -.259 .259 -.966 573.437 629.879)"/><g><path d="m285.285 242.137-1.472 5.495c-1.318 4.918 1.601 9.973 6.519 11.291l79.764 21.373c4.918 1.318 9.973-1.601 11.291-6.519l1.472-5.495c.238-.887.416-1.774.533-2.659 1.385-10.295-5.062-20.262-15.36-23.021l-57.067-15.291c-10.298-2.759-20.865 2.649-24.813 12.257-.341.825-.63 1.682-.867 2.569z" fill="#aa1813"/><path d="m286.152 239.567c-.302 4.312 2.478 8.37 6.811 9.531l79.764 21.373c4.333 1.161 8.771-.964 10.665-4.849 1.213-9.015-3.582-17.78-11.708-21.672-1.153-.552-2.374-1.007-3.652-1.35l-57.067-15.291c-1.277-.342-2.563-.559-3.837-.657-8.984-.692-17.519 4.502-20.976 12.915z" fill="#dd1608"/><path d="m308.002 230.604 60.95 16.331c1.741.466 2.774 2.256 2.307 3.997-.466 1.741-2.256 2.774-3.997 2.307l-60.95-16.331c-1.741-.466-2.774-2.256-2.307-3.997.467-1.741 2.256-2.774 3.997-2.307z" fill="#ea4744"/></g><g><path d="m272.396 215.048-11.898 44.403c-1.067 3.984 1.297 8.079 5.281 9.146l20.489 5.49 13.83-51.616c.147-.549.26-1.099.338-1.645 1.045-7.098-3.376-14.014-10.478-15.917-7.099-1.902-14.389 1.876-17.033 8.546-.205.511-.381 1.044-.529 1.593z" fill="#be1913"/><path d="m272.926 213.454c-1.041 7.099 3.382 14.007 10.48 15.909 7.103 1.903 14.383-1.869 17.031-8.538 1.045-7.098-3.376-14.014-10.478-15.917-7.099-1.902-14.389 1.877-17.033 8.546z" fill="#dd1608"/><path d="m276.797 236.23-8.83 32.953 8.899 2.385 8.83-32.953c.047-.176.084-.353.109-.529.336-2.28-1.084-4.502-3.366-5.114-2.28-.611-4.622.603-5.472 2.745-.066.166-.123.337-.17.513z" fill="#dd1608"/><ellipse cx="282.987" cy="214.795" fill="#ea4744" rx="7.51" ry="4.175" transform="matrix(.259 -.966 .966 .259 2.268 432.547)"/></g><g><path d="m379.862 243.844-13.83 51.616 20.489 5.49c3.984 1.067 8.079-1.297 9.146-5.281l11.898-44.403c.147-.549.26-1.099.338-1.645 1.045-7.098-3.376-14.014-10.478-15.917-7.099-1.902-14.389 1.876-17.033 8.546-.206.512-.383 1.045-.53 1.594z" fill="#be1913"/><path d="m380.392 242.25c-1.041 7.099 3.382 14.007 10.48 15.909 7.103 1.903 14.383-1.869 17.031-8.538 1.045-7.098-3.376-14.014-10.478-15.917-7.099-1.902-14.389 1.876-17.033 8.546z" fill="#dd1608"/><path d="m384.263 265.025-8.83 32.953 8.899 2.385 8.83-32.953c.047-.176.084-.353.109-.529.336-2.28-1.084-4.502-3.366-5.114-2.28-.611-4.622.603-5.472 2.745-.066.166-.123.337-.17.513z" fill="#dd1608"/><ellipse cx="390.453" cy="243.591" fill="#ea4744" rx="7.51" ry="4.175" transform="matrix(.259 -.966 .966 .259 54.105 557.693)"/></g></g><g><g><path d="m414.961 285.799v47.687h39.801v-47.687c0-6.184-5.011-11.196-11.189-11.196h-17.423c-6.177.001-11.189 5.012-11.189 11.196z" fill="#a95afe"/><path d="m427.993 284.793c-1.017 0-1.842-.825-1.842-1.842v-6.263c0-1.15.932-2.082 2.082-2.082h13.264c1.15 0 2.082.932 2.082 2.082v6.263c0 1.017-.825 1.842-1.842 1.842h-.001c-.924 0-1.672.749-1.672 1.672 0 .878-.712 1.59-1.59 1.59h-7.219c-.878 0-1.59-.712-1.59-1.59 0-.923-.749-1.672-1.672-1.672z" fill="#8a47de"/></g><g><path d="m420.652 223.975h28.426c5.618 0 10.172 4.554 10.172 10.172v34.534c0 1.715-1.752 2.888-3.326 2.208-3.342-1.444-9.681-3.13-21.059-3.13-11.379 0-17.717 1.685-21.059 3.129-1.574.68-3.326-.494-3.326-2.208v-34.533c0-5.618 4.554-10.172 10.172-10.172z" fill="#9f482c"/><g><g><path d="m428.355 270.345v4.261c0 3.595 2.914 6.51 6.51 6.51 3.595 0 6.51-2.915 6.51-6.51v-4.261z" fill="#fdc8bb"/><path d="m428.355 270.345v3.68c.882.828 1.905 1.474 3.013 1.91 1.103.436 2.286.667 3.497.667 2.416 0 4.745-.92 6.51-2.577v-3.68z" fill="#f78c87"/></g><g><path d="m414.959 238.512v14.155c0 3.938 1.722 7.677 4.713 10.238l8.683 7.44c.759.71 1.614 1.28 2.545 1.705.156.07.312.135.468.199 1.103.436 2.286.667 3.497.667 2.416 0 4.745-.92 6.51-2.572l8.683-7.44c2.991-2.561 4.707-6.3 4.707-10.238v-14.155c0-5.235-4.239-9.479-9.474-9.479h-20.853c-5.234 0-9.479 4.245-9.479 9.48z" fill="#fbb3a5"/><path d="m414.959 238.512v14.155c0 3.938 1.722 7.677 4.713 10.238l8.683 7.44c.759.71 1.614 1.28 2.545 1.705.931-.425 1.786-.995 2.545-1.705l8.683-7.44c2.991-2.561 4.707-6.3 4.707-10.238v-14.155c0-5.235-4.245-9.479-9.474-9.479h-12.923c-5.234-.001-9.479 4.244-9.479 9.479z" fill="#fdc8bb"/></g><path d="m414.47 244.688h.491v7.981h-.491c-2.204 0-3.99-1.787-3.99-3.99 0-2.205 1.787-3.991 3.99-3.991z" fill="#fdc8bb"/><path d="m455.258 252.668h-.491v-7.981h.491c2.204 0 3.99 1.787 3.99 3.99.001 2.205-1.786 3.991-3.99 3.991z" fill="#fbb3a5"/><path d="m433.158 252.668h3.412c.876 0 1.586.71 1.586 1.586 0 .876-.71 1.586-1.586 1.586h-3.412c-.876 0-1.586-.71-1.586-1.586 0-.876.71-1.586 1.586-1.586z" fill="#fbb3a5"/><g><ellipse cx="425.665" cy="250.663" fill="#1a2f5d" rx="2.085" ry="2.73"/><ellipse cx="444.08" cy="250.663" fill="#1a2f5d" rx="2.085" ry="2.73"/><g><path d="m421.816 249.864c.15 0 .301-.037.441-.115 2.16-1.202 4.641-1.204 6.802-.008.439.243.992.084 1.236-.355.243-.439.084-.992-.355-1.236-1.351-.748-2.789-1.128-4.275-1.128-1.492 0-2.936.383-4.292 1.137-.439.244-.597.798-.352 1.236.166.3.476.469.795.469z" fill="#1a2f5d"/></g><g><path d="m440.231 249.864c.15 0 .301-.037.441-.115 2.16-1.202 4.641-1.204 6.802-.008.439.243.992.084 1.236-.355.243-.439.084-.992-.355-1.236-1.351-.748-2.789-1.128-4.275-1.128-1.492 0-2.936.383-4.292 1.137-.439.244-.597.798-.352 1.236.166.3.476.469.795.469z" fill="#1a2f5d"/></g><g><path d="m420.526 246.006c.108 0 .217-.019.324-.06 1.525-.581 3.145-.875 4.816-.875 1.666 0 3.281.292 4.8.869.468.178.994-.057 1.173-.527.178-.469-.058-.994-.527-1.172-1.726-.655-3.559-.988-5.446-.988-1.893 0-3.731.334-5.463.994-.469.179-.704.704-.526 1.173.137.363.482.586.849.586z" fill="#9f482c"/></g><g><path d="m439.996 259.556c-.108 0-.217.019-.324.06-1.525.581-3.145.875-4.816.875-1.666 0-3.281-.292-4.8-.869-.468-.178-.994.057-1.173.527-.178.469.058.994.527 1.172 1.726.655 3.559.988 5.446.988 1.893 0 3.731-.334 5.463-.994.469-.179.704-.704.526-1.173-.137-.363-.483-.586-.849-.586z" fill="#f78c87"/></g><g><path d="m438.94 246.006c.108 0 .217-.019.324-.06 1.525-.581 3.145-.875 4.816-.875 1.666 0 3.281.292 4.8.869.467.179.994-.057 1.173-.527.178-.469-.058-.994-.527-1.172-1.726-.656-3.558-.988-5.446-.988-1.893 0-3.731.334-5.463.994-.469.179-.704.704-.526 1.173.138.363.483.586.849.586z" fill="#9f482c"/></g></g></g><path d="m421.249 227.004h27.227c4.082 0 7.391 3.309 7.391 7.391v1.397c0 2.644-2.143 4.787-4.787 4.787h-32.434c-2.644 0-4.787-2.143-4.787-4.787v-1.397c-.001-4.082 3.308-7.391 7.39-7.391z" fill="#a75c37"/></g><g><path d="m451.78 292.156c1.288 5.522-.627 11.3-4.954 14.963l-3.148 2.665c-3.088 2.634-7.277 4.113-11.644 4.113h-26.732v-12.498h10.184c6.805 0 13.331-2.305 18.143-6.409l8.856-7.553c2.885-2.46 7.191-1.423 8.491 2.087.223.604.565 1.608.804 2.632z" fill="#8a47de"/><path d="m383.819 301.398v4.139c0 1.99 1.615 3.611 3.605 3.611h17.877v-7.75h-4.594c0-1.566-.633-2.985-1.658-4.01-1.026-1.026-2.444-1.658-4.01-1.658h-5.552c-3.132 0-5.668 2.536-5.668 5.668z" fill="#fdc8bb"/></g><g><g><path d="m398.578 359.812 17.624 16.917 2.886 2.767 8.63-8.63-10.838-13.256c-.975-1.19-.573-2.991.826-3.653l14.165-6.718c.446-.216.937-.327 1.436-.327 1.577 0 2.931 1.101 3.266 2.619v.015c.022.104.037.208.052.312l5.208 43.231 7.283 1.785 5.647 1.384v-62.775h-39.803l-16.382 16.382c-2.745 2.745-2.745 7.202 0 9.947z" fill="#dd5e26"/><path d="m398.578 359.812 17.624 16.917 1.466-1.466c2.5-2.5 2.7-6.48.476-9.225l-8.228-10.118c-.975-1.198-.573-2.991.826-3.653l21.113-9.902c.446-.216 1.131-.505 1.63-.505 1.689 0 1.668 1.013 2.137 2.714l.949 4.955v.015c.022.104.037.208.052.312l5.208 43.231 7.283 1.785v-61.391h-34.154l-16.382 16.382c-2.745 2.747-2.745 7.204 0 9.949z" fill="#ea792e"/></g><g><path d="m425.792 398.453 25.532 6.74c1.733.454 3.437-.856 3.437-2.648v-6.286l-12.93-3.169-13.227-1.272c-.149-.015-.29-.022-.439-.022-1.979 0-3.742 1.309-4.3 3.244-.431 1.478.439 3.018 1.927 3.413z" fill="#334353"/><path d="m425.792 398.453 25.532 6.74c1.733.454 3.437-.856 3.437-2.648l-30.896-7.506c-.431 1.479.439 3.019 1.927 3.414z" fill="#3e4e60"/></g><g><path d="m415.317 393.186c.543.699 1.347 1.056 2.158 1.056.722 0 1.451-.283 1.994-.863l14.5-15.363c1.25-1.324.878-3.482-.744-4.315l-5.505-2.834-8.63 8.63-4.263 7.923c-.998 1.845-.804 4.106.49 5.766z" fill="#334353"/><path d="m415.317 393.186c.543.699 1.347 1.056 2.158 1.056.722 0 1.451-.283 1.994-.863l14.5-15.363c1.25-1.324.878-3.482-.744-4.315z" fill="#3e4e60"/></g></g></g><g><g><g><path d="m261.047 295.683-21.409 12.021-3.505 1.966-6.223-10.57 13.885-10.169c1.248-.913 1.311-2.766.116-3.762l-12.09-10.104c-.38-.322-.83-.555-1.315-.68-1.535-.397-3.129.333-3.837 1.725l-.004.014c-.048.096-.089.193-.129.291l-15.955 40.751-7.536-.097-5.843-.076 15.81-61.078 38.725 10.024 11.813 20.065c1.981 3.364.859 7.7-2.503 9.679z" fill="#8a47de"/><path d="m261.047 295.683-21.409 12.021-1.057-1.795c-1.802-3.062-.995-6.985 1.86-9.095l10.554-7.772c1.25-.92 1.311-2.766.116-3.762l-18.049-14.952c-.38-.322-.974-.776-1.459-.901-1.643-.425-1.878.566-2.763 2.103l-2.172 4.581-.004.014c-.048.096-.089.193-.129.291l-15.955 40.751-7.536-.097 15.462-59.731 33.231 8.602 11.813 20.065c1.981 3.362.859 7.698-2.503 9.677z" fill="#a95afe"/></g><g><path d="m224.836 326.425-26.54.127c-1.801.005-3.129-1.698-2.677-3.443l1.583-6.116 13.378.173 13.19 2.094c.148.023.288.051.433.089 1.925.498 3.311 2.216 3.367 4.239.048 1.549-1.187 2.828-2.734 2.837z" fill="#334353"/><path d="m224.836 326.425-26.54.127c-1.801.005-3.129-1.698-2.677-3.443l31.952.478c.047 1.55-1.188 2.829-2.735 2.838z" fill="#3e4e60"/></g><g><path d="m236.355 323.939c-.705.544-1.576.689-2.365.484-.702-.182-1.34-.64-1.723-1.342l-10.238-18.599c-.882-1.603.023-3.609 1.811-4.011l6.07-1.371 6.223 10.57 2.152 8.783c.505 2.046-.253 4.198-1.93 5.486z" fill="#334353"/><path d="m236.355 323.939c-.705.544-1.576.689-2.365.484-.702-.182-1.34-.64-1.723-1.342l-10.238-18.599c-.882-1.603.023-3.609 1.811-4.011z" fill="#3e4e60"/></g></g><g><path d="m263.747 219.545-12.01 46.398-38.726-10.024 12.01-46.398c1.558-6.017 7.695-9.631 13.707-8.075l16.952 4.388c6.011 1.556 9.625 7.694 8.067 13.711z" fill="#53b976"/></g><g><path d="m252.834 150.418 15.267 3.952c8.887 2.301 14.227 11.37 11.926 20.258l-2.57 9.928-47.451-12.283 2.57-9.928c2.301-8.888 11.371-14.228 20.258-11.927z" fill="#3d2322"/><g><g><path d="m254.608 201.135-1.073 4.146c-.906 3.498-4.475 5.6-7.973 4.694-3.498-.905-5.6-4.475-4.694-7.973l1.073-4.146z" fill="#995444"/><path d="m254.608 201.135-.927 3.58c-1.067.584-2.224.955-3.412 1.099-1.183.146-2.393.073-3.57-.232-2.35-.608-4.385-2.09-5.685-4.147l.927-3.58z" fill="#6d413c"/></g><g><path d="m275.659 173.536-3.565 13.772c-.992 3.832-3.609 7.036-7.164 8.774l-10.322 5.052c-.917.5-1.893.839-2.905 1.018-.169.029-.338.052-.506.076-1.183.146-2.393.073-3.57-.232-2.35-.608-4.385-2.09-5.686-4.142l-6.575-9.426c-2.265-3.245-2.993-7.315-2.002-11.147l3.565-13.772c1.318-5.093 6.512-8.155 11.606-6.837l20.289 5.252c5.093 1.32 8.154 6.519 6.835 11.612z" fill="#774742"/><path d="m275.659 173.536-3.565 13.772c-.992 3.832-3.609 7.036-7.164 8.774l-10.322 5.052c-.917.5-1.893.839-2.905 1.018-.799-.648-1.487-1.418-2.047-2.3l-6.574-9.426c-2.265-3.245-2.993-7.315-2.002-11.147l3.565-13.772c1.318-5.093 6.517-8.154 11.606-6.837l12.573 3.255c5.093 1.319 8.154 6.518 6.835 11.611z" fill="#995444"/></g><path d="m274.58 179.668-.478-.124-2.01 7.765.478.124c2.144.555 4.332-.733 4.888-2.878.554-2.144-.734-4.332-2.878-4.887z" fill="#995444"/><path d="m232.884 177.16.478.124 2.01-7.765-.478-.124c-2.144-.555-4.333.733-4.888 2.878-.554 2.144.734 4.332 2.878 4.887z" fill="#774742"/><path d="m254.387 182.726-3.32-.859c-.852-.221-1.722.291-1.942 1.144-.221.852.291 1.722 1.144 1.942l3.32.859c.852.221 1.722-.291 1.942-1.144.22-.851-.292-1.721-1.144-1.942z" fill="#774742"/><g><ellipse cx="262.183" cy="182.662" fill="#3d2322" rx="2.744" ry="2.095" transform="matrix(.251 -.968 .968 .251 19.647 390.704)"/><ellipse cx="244.266" cy="178.024" fill="#3d2322" rx="2.744" ry="2.095" transform="matrix(.251 -.968 .968 .251 10.709 369.883)"/><g><path d="m266.129 182.854c-.146-.038-.283-.112-.4-.223-1.798-1.714-4.212-2.341-6.616-1.721-.488.126-.987-.168-1.113-.656-.126-.489.168-.987.657-1.113 1.503-.388 2.998-.395 4.443-.021 1.452.376 2.76 1.112 3.889 2.187.365.348.38.926.031 1.292-.237.25-.581.336-.891.255z" fill="#3d2322"/></g><g><path d="m248.211 178.216c-.146-.038-.283-.112-.4-.223-1.799-1.714-4.212-2.341-6.616-1.721-.488.126-.987-.168-1.113-.656-.126-.489.168-.987.657-1.113 1.503-.388 2.998-.395 4.443-.021 1.452.376 2.76 1.112 3.889 2.187.365.348.38.926.032 1.292-.237.25-.581.336-.892.255z" fill="#3d2322"/></g><g><path d="m268.302 179.519c-.104-.029-.205-.077-.297-.146-1.318-.975-2.806-1.7-4.423-2.153-1.612-.452-3.255-.607-4.881-.461-.501.045-.946-.325-.992-.828-.045-.502.326-.946.828-.991 1.849-.166 3.712.01 5.538.522 1.832.514 3.52 1.336 5.017 2.444.406.3.491.872.191 1.278-.232.312-.626.434-.981.335z" fill="#512f2d"/></g><g><path d="m250.374 174.9c-.104-.03-.205-.078-.296-.147-1.314-.981-2.799-1.712-4.414-2.172-1.61-.459-3.252-.621-4.879-.482-.501.044-.945-.329-.988-.832s.33-.945.832-.988c1.849-.158 3.711.025 5.536.545 1.83.521 3.514 1.351 5.007 2.465.404.302.487.874.185 1.279-.234.312-.629.433-.983.332z" fill="#512f2d"/></g><g><path d="m245.783 188.475c.105.027.207.072.301.138 1.343.941 2.849 1.626 4.478 2.037 1.624.41 3.269.522 4.892.333.499-.059.955.3 1.013.802.058.501-.301.955-.802 1.013-1.843.215-3.71.088-5.55-.376-1.845-.465-3.554-1.243-5.079-2.312-.413-.289-.513-.859-.224-1.272.223-.32.614-.453.971-.363z" fill="#6d413c"/></g></g></g><g fill="#512f2d"><path d="m254.896 153.631 2.862 2.603c.87.791 2.074 1.102 3.218.832l3.755-.887c1.518-.359 3.116 0 4.335.972l3.84 3.063c3.144 2.508 4.585 6.588 3.712 10.514l-2.462 11.083c-.254 1.143-1.739 1.448-2.424.499l-12.48-17.318c-.872-1.21-2.482-1.627-3.831-.992l-19.32 9.087c-1.059.498-2.21-.49-1.877-1.612l3.225-10.887c1.142-3.856 4.38-6.724 8.346-7.392l4.84-.816c1.537-.259 3.108.202 4.261 1.251z"/><path d="m241.34 187.83 5.616 1.454c1.86.482 3.964-.009 4.273-1.205l.059-.228c.31-1.196-1.401-2.223-3.371-2.28l-5.948-.171c-.71-.02-1.342.426-1.489.994l-.028.108c-.147.568.218 1.154.888 1.328z"/><path d="m254.145 191.144 5.745 1.487c.728.189 1.393-.183 1.555-.811l.031-.12c.163-.628-.21-1.385-.899-1.724l-5.437-2.674c-1.677-.825-3.542-.649-3.851.548l-.059.228c-.311 1.196 1.143 2.608 2.915 3.066z"/></g></g><g><path d="m231.575 212.037c-4.871 2.958-7.674 8.396-7.262 14.079l.3 4.135c.28 4.07 2.163 8.118 5.234 11.254l18.797 19.197 8.975-8.788-7.161-7.313c-4.785-4.887-7.718-11.194-8.155-17.535l-.804-11.67c-.262-3.801-4.034-6.165-7.469-4.631-.591.263-1.552.723-2.455 1.272z" fill="#528f66"/><path d="m272.725 267.339-2.972 2.91c-1.429 1.399-3.729 1.379-5.128-.05l-12.57-12.838 5.566-5.45 3.23 3.299c1.125-1.101 2.588-1.644 4.046-1.629s2.909.589 4.011 1.714l3.904 3.987c2.2 2.25 2.162 5.854-.087 8.057z" fill="#995444"/></g></g></g></svg>